<svg width="715" height="117" viewBox="0 0 715 117" fill="none" xmlns="http://www.w3.org/2000/svg">
<path d="M245.64 116.076H264.544C272.651 116.076 280.068 113.124 285.779 108.236L245.64 68.0967V116.076Z" fill="#91A0A166"/>
<path d="M290.585 103.14C294.749 97.6564 297.219 90.8172 297.219 83.4008V61.826H249.271L290.585 103.14Z" fill="#91A0A166"/>
<path d="M297.219 54.8242V37.6557C297.219 29.7873 294.438 22.5684 289.805 16.9286L251.91 54.8242H297.219Z" fill="#91A0A166"/>
<path d="M284.81 12.0223C279.24 7.61314 272.2 4.98059 264.544 4.98059H245.64V51.1924L284.81 12.0223Z" fill="#91A0A166"/>
<path d="M238.638 4.98059H33.5667C15.5207 4.98059 0.891602 19.6097 0.891602 37.6557V54.8242H232.367L195.268 17.7254L200.219 12.7744L238.638 51.1928V4.98059Z" fill="#91A0A166"/>
<path d="M0.891602 61.826V83.4008C0.891602 101.447 15.5208 116.076 33.5667 116.076H238.638V68.0962L200.269 106.465L195.318 101.514L235.006 61.826H0.891602Z" fill="#91A0A166"/>
<path d="M687.917 115.348V76.3146H698.404L699.496 80.247H699.86C700.88 78.8877 702.191 77.8924 703.793 77.2613C705.395 76.6301 707.046 76.3146 708.745 76.3146H714.134V87.675H709.473C706.415 87.675 704.036 88.5003 702.336 90.151C700.686 91.7531 699.86 94.1563 699.86 97.3605V115.348H687.917Z" fill="#91A0A166"/>
<path d="M664.282 116.076C658.116 116.076 653.31 114.328 649.863 110.833C646.416 107.289 644.692 102.288 644.692 95.8312C644.692 89.3742 646.416 84.3979 649.863 80.9024C653.31 77.3583 658.116 75.5863 664.282 75.5863C670.447 75.5863 675.254 77.3583 678.701 80.9024C682.148 84.3979 683.871 89.3742 683.871 95.8312C683.871 102.288 682.148 107.289 678.701 110.833C675.254 114.328 670.447 116.076 664.282 116.076ZM664.282 105.444C666.564 105.444 668.408 104.643 669.816 103.041C671.224 101.39 671.928 98.9868 671.928 95.8312C671.928 92.6755 671.224 90.2966 669.816 88.6945C668.408 87.0438 666.564 86.2185 664.282 86.2185C662 86.2185 660.155 87.0438 658.747 88.6945C657.339 90.2966 656.635 92.6755 656.635 95.8312C656.635 98.9868 657.339 101.39 658.747 103.041C660.155 104.643 662 105.444 664.282 105.444Z" fill="#91A0A166"/>
<path d="M634.792 115.348C630.229 115.348 626.903 114.377 624.816 112.435C622.728 110.444 621.684 107.434 621.684 103.405V87.0924H615.494V76.3145H621.684L623.578 66.1193H633.627V76.3145H642.73V87.0924H633.627V101.147C633.627 102.167 633.918 102.992 634.501 103.623C635.084 104.254 635.86 104.57 636.831 104.57H642.73V115.348H634.792Z" fill="#91A0A166"/>
<path d="M596.439 75.5863C601.877 75.5863 606.1 76.8971 609.11 79.5188C612.169 82.0919 613.698 85.8544 613.698 90.8064V115.348H603.212L602.119 111.415H601.755C600.833 112.629 599.498 113.721 597.75 114.692C596.002 115.615 593.89 116.076 591.414 116.076C588.598 116.076 586.147 115.542 584.059 114.474C582.02 113.406 580.442 111.949 579.326 110.105C578.258 108.26 577.723 106.172 577.723 103.842C577.723 100.298 579.034 97.409 581.656 95.1758C584.278 92.9425 588.089 91.8259 593.089 91.8259H601.974V90.2238C601.974 88.7673 601.464 87.6021 600.444 86.7283C599.425 85.8544 598.041 85.4174 596.293 85.4174C594.885 85.4174 593.72 85.6845 592.798 86.2185C591.924 86.7525 591.293 87.505 590.904 88.476H579.18C579.86 84.8349 581.632 81.7763 584.496 79.3003C587.409 76.8243 591.39 75.5863 596.439 75.5863ZM594.4 106.609C596.682 106.609 598.502 106.026 599.862 104.861C601.27 103.648 601.974 102.094 601.974 100.201V99.3267H593.89C592.434 99.3267 591.317 99.6423 590.54 100.273C589.812 100.905 589.448 101.778 589.448 102.895C589.448 103.963 589.861 104.861 590.686 105.589C591.511 106.269 592.749 106.609 594.4 106.609Z" fill="#91A0A166"/>
<path d="M551.934 115.348V76.3146H562.421L563.513 80.247H563.877C564.897 78.8877 566.208 77.8924 567.81 77.2613C569.412 76.6301 571.063 76.3146 572.762 76.3146H578.151V87.675H573.49C570.431 87.675 568.053 88.5003 566.353 90.151C564.703 91.7531 563.877 94.1563 563.877 97.3605V115.348H551.934Z" fill="#91A0A166"/>
<path d="M547.884 95.5399C547.884 96.8507 547.763 98.113 547.52 99.3267H520.503C520.891 101.608 521.741 103.356 523.052 104.57C524.363 105.784 526.086 106.391 528.222 106.391C530.213 106.391 531.693 106.075 532.664 105.444C533.684 104.813 534.509 103.963 535.14 102.895H547.156C546.282 106.342 544.34 109.401 541.33 112.071C538.369 114.741 534.145 116.076 528.659 116.076C522.396 116.076 517.517 114.328 514.022 110.833C510.575 107.289 508.851 102.288 508.851 95.8312C508.851 89.3742 510.599 84.3979 514.094 80.9024C517.59 77.3583 522.445 75.5863 528.659 75.5863C532.689 75.5863 536.136 76.4602 539 78.2079C541.913 79.9557 544.122 82.3589 545.627 85.4174C547.132 88.4275 547.884 91.8016 547.884 95.5399ZM536.815 91.8259C536.475 89.981 535.602 88.4275 534.194 87.1652C532.786 85.8544 530.941 85.199 528.659 85.199C526.523 85.199 524.751 85.7573 523.343 86.8739C521.935 87.9905 520.988 89.6412 520.503 91.8259H536.815Z" fill="#91A0A166"/>
<path d="M500.793 115.348C496.229 115.348 492.904 114.377 490.816 112.435C488.729 110.444 487.685 107.434 487.685 103.405V64.3716H499.628V101.147C499.628 102.167 499.919 102.992 500.502 103.623C501.084 104.254 501.861 104.57 502.832 104.57H508.585V115.348H500.793Z" fill="#91A0A166"/>
<path d="M483.271 95.5399C483.271 96.8507 483.15 98.113 482.907 99.3267H455.889C456.278 101.608 457.127 103.356 458.438 104.57C459.749 105.784 461.473 106.391 463.609 106.391C465.599 106.391 467.08 106.075 468.051 105.444C469.07 104.813 469.896 103.963 470.527 102.895H482.543C481.669 106.342 479.727 109.401 476.717 112.071C473.755 114.741 469.532 116.076 464.046 116.076C457.783 116.076 452.904 114.328 449.408 110.833C445.961 107.289 444.238 102.288 444.238 95.8312C444.238 89.3742 445.986 84.3979 449.481 80.9024C452.977 77.3583 457.831 75.5863 464.046 75.5863C468.075 75.5863 471.522 76.4602 474.387 78.2079C477.3 79.9557 479.509 82.3589 481.014 85.4174C482.519 88.4275 483.271 91.8016 483.271 95.5399ZM472.202 91.8259C471.862 89.981 470.988 88.4275 469.58 87.1652C468.172 85.8544 466.327 85.199 464.046 85.199C461.91 85.199 460.138 85.7573 458.73 86.8739C457.322 87.9905 456.375 89.6412 455.889 91.8259H472.202Z" fill="#91A0A166"/>
<path d="M424.48 116.076C418.314 116.076 413.508 114.328 410.061 110.833C406.614 107.289 404.89 102.288 404.89 95.8312C404.89 89.3742 406.614 84.3979 410.061 80.9024C413.508 77.3583 418.314 75.5863 424.48 75.5863C430.063 75.5863 434.36 77.0913 437.37 80.1013C440.428 83.0628 442.37 86.6797 443.195 90.952H431.252C430.573 89.3985 429.675 88.2333 428.558 87.4565C427.49 86.6312 426.058 86.2185 424.261 86.2185C422.077 86.2185 420.28 87.0438 418.872 88.6945C417.513 90.3451 416.833 92.724 416.833 95.8312C416.833 98.9383 417.513 101.317 418.872 102.968C420.28 104.619 422.077 105.444 424.261 105.444C426.058 105.444 427.49 105.055 428.558 104.279C429.675 103.453 430.573 102.264 431.252 100.71H443.195C442.37 104.983 440.428 108.624 437.37 111.634C434.36 114.595 430.063 116.076 424.48 116.076Z" fill="#91A0A166"/>
<path d="M385.133 116.076C378.967 116.076 374.16 114.328 370.714 110.833C367.267 107.289 365.543 102.288 365.543 95.8312C365.543 89.3742 367.267 84.3979 370.714 80.9024C374.16 77.3583 378.967 75.5863 385.133 75.5863C390.716 75.5863 395.012 77.0913 398.022 80.1013C401.081 83.0628 403.023 86.6797 403.848 90.952H391.905C391.225 89.3985 390.327 88.2333 389.211 87.4565C388.143 86.6312 386.71 86.2185 384.914 86.2185C382.729 86.2185 380.933 87.0438 379.525 88.6945C378.166 90.3451 377.486 92.724 377.486 95.8312C377.486 98.9383 378.166 101.317 379.525 102.968C380.933 104.619 382.729 105.444 384.914 105.444C386.71 105.444 388.143 105.055 389.211 104.279C390.327 103.453 391.225 102.264 391.905 100.71H403.848C403.023 104.983 401.081 108.624 398.022 111.634C395.012 114.595 390.716 116.076 385.133 116.076Z" fill="#91A0A166"/>
<path d="M367.021 115.348H353.33L350.49 106.755H331.556L328.788 115.348H315.389L333.376 64.3716H349.033L367.021 115.348ZM340.804 78.1352L335.124 95.7584H346.921L341.168 78.1352H340.804Z" fill="#91A0A166"/>
<path d="M626.641 57.1108C620.476 57.1108 615.669 55.3631 612.222 51.8676C608.775 48.3235 607.052 43.323 607.052 36.866C607.052 30.409 608.775 25.4327 612.222 21.9372C615.669 18.3931 620.476 16.6211 626.641 16.6211C632.224 16.6211 636.521 18.1261 639.531 21.1361C642.59 24.0976 644.532 27.7145 645.357 31.9868H633.414C632.734 30.4332 631.836 29.2681 630.719 28.4913C629.651 27.666 628.219 27.2533 626.423 27.2533C624.238 27.2533 622.442 28.0786 621.034 29.7293C619.675 31.3799 618.995 33.7588 618.995 36.866C618.995 39.9731 619.675 42.352 621.034 44.0026C622.442 45.6533 624.238 46.4786 626.423 46.4786C628.219 46.4786 629.651 46.0902 630.719 45.3135C631.836 44.4881 632.734 43.2987 633.414 41.7451H645.357C644.532 46.0174 642.59 49.6586 639.531 52.6686C636.521 55.6301 632.224 57.1108 626.641 57.1108Z" fill="#91A0A166"/>
<path d="M602.94 56.3825H590.997V17.3493H602.94V56.3825ZM596.969 13.4896C595.027 13.4896 593.424 12.8828 592.162 11.6691C590.9 10.4068 590.269 8.85322 590.269 7.00837C590.269 5.16351 590.9 3.63422 592.162 2.4205C593.424 1.15823 595.027 0.5271 596.969 0.5271C598.91 0.5271 600.513 1.15823 601.775 2.4205C603.037 3.63422 603.668 5.16351 603.668 7.00837C603.668 8.85322 603.037 10.4068 601.775 11.6691C600.513 12.8828 598.91 13.4896 596.969 13.4896Z" fill="#91A0A166"/>
<path d="M578.428 56.3825C573.865 56.3825 570.539 55.4115 568.452 53.4695C566.364 51.479 565.32 48.469 565.32 44.4394V28.127H559.13V17.3492H565.32L567.214 7.15393H577.263V17.3492H586.366V28.127H577.263V42.1819C577.263 43.2014 577.554 44.0268 578.137 44.6579C578.72 45.289 579.496 45.6046 580.467 45.6046H586.366V56.3825H578.428Z" fill="#91A0A166"/>
<path d="M540.075 16.6211C545.512 16.6211 549.736 17.9319 552.746 20.5535C555.805 23.1266 557.334 26.8892 557.334 31.8412V56.3826H546.847L545.755 52.4501H545.391C544.469 53.6639 543.133 54.7562 541.386 55.7272C539.638 56.6496 537.526 57.1108 535.05 57.1108C532.234 57.1108 529.783 56.5768 527.695 55.5087C525.656 54.4406 524.078 52.9842 522.961 51.1393C521.893 49.2945 521.359 47.2069 521.359 44.8765C521.359 41.3325 522.67 38.4438 525.292 36.2106C527.913 33.9773 531.725 32.8607 536.725 32.8607H545.609V31.2586C545.609 29.8021 545.1 28.6369 544.08 27.7631C543.061 26.8892 541.677 26.4522 539.929 26.4522C538.521 26.4522 537.356 26.7193 536.434 27.2533C535.56 27.7873 534.929 28.5398 534.54 29.5108H522.816C523.495 25.8696 525.268 22.8111 528.132 20.3351C531.045 17.8591 535.026 16.6211 540.075 16.6211ZM538.036 47.6438C540.318 47.6438 542.138 47.0612 543.498 45.896C544.906 44.6823 545.609 43.1288 545.609 41.2354V40.3615H537.526C536.07 40.3615 534.953 40.677 534.176 41.3082C533.448 41.9393 533.084 42.8132 533.084 43.9298C533.084 44.9979 533.497 45.896 534.322 46.6243C535.147 47.304 536.385 47.6438 538.036 47.6438Z" fill="#91A0A166"/>
<path d="M495.57 56.3826V17.3494H506.057L507.149 21.2818H507.513C508.533 19.9225 509.844 18.9272 511.446 18.2961C513.048 17.6649 514.698 17.3494 516.398 17.3494H521.787V28.7098H517.126C514.067 28.7098 511.688 29.5351 509.989 31.1858C508.339 32.7879 507.513 35.1911 507.513 38.3953V56.3826H495.57Z" fill="#91A0A166"/>
<path d="M467.322 57.1108C462.175 57.1108 458.049 55.363 454.942 51.8675C451.883 48.372 450.354 43.3714 450.354 36.8659C450.354 30.3604 451.883 25.3598 454.942 21.8643C458.049 18.3688 462.175 16.621 467.322 16.621C469.458 16.621 471.375 17.0337 473.075 17.859C474.822 18.6844 476.206 19.7039 477.225 20.9176H477.59V5.40625H489.533V56.3825H479.046L477.954 52.4501H477.59C475.017 55.5572 471.594 57.1108 467.322 57.1108ZM469.943 46.4786C472.225 46.4786 474.07 45.6775 475.478 44.0754C476.886 42.4247 477.59 40.0216 477.59 36.8659C477.59 33.7102 476.886 31.3313 475.478 29.7292C474.07 28.0786 472.225 27.2532 469.943 27.2532C467.661 27.2532 465.817 28.0786 464.409 29.7292C463.001 31.3313 462.297 33.7102 462.297 36.8659C462.297 40.0216 463.001 42.4247 464.409 44.0754C465.817 45.6775 467.661 46.4786 469.943 46.4786Z" fill="#91A0A166"/>
<path d="M429.358 16.6211C434.795 16.6211 439.019 17.9319 442.029 20.5535C445.088 23.1266 446.617 26.8892 446.617 31.8412V56.3826H436.13L435.038 52.4501H434.674C433.752 53.6639 432.416 54.7562 430.669 55.7272C428.921 56.6496 426.809 57.1108 424.333 57.1108C421.517 57.1108 419.066 56.5768 416.978 55.5087C414.939 54.4406 413.361 52.9842 412.244 51.1393C411.176 49.2945 410.642 47.2069 410.642 44.8765C410.642 41.3325 411.953 38.4438 414.575 36.2106C417.196 33.9773 421.007 32.8607 426.008 32.8607H434.892V31.2586C434.892 29.8021 434.383 28.6369 433.363 27.7631C432.344 26.8892 430.96 26.4522 429.212 26.4522C427.804 26.4522 426.639 26.7193 425.717 27.2533C424.843 27.7873 424.212 28.5398 423.823 29.5108H412.099C412.778 25.8696 414.55 22.8111 417.415 20.3351C420.328 17.8591 424.309 16.6211 429.358 16.6211ZM427.319 47.6438C429.601 47.6438 431.421 47.0612 432.781 45.896C434.188 44.6823 434.892 43.1288 434.892 41.2354V40.3615H426.809C425.353 40.3615 424.236 40.677 423.459 41.3082C422.731 41.9393 422.367 42.8132 422.367 43.9298C422.367 44.9979 422.779 45.896 423.605 46.6243C424.43 47.304 425.668 47.6438 427.319 47.6438Z" fill="#91A0A166"/>
<path d="M384.541 57.1109C382.065 57.1109 379.759 56.5526 377.623 55.4359C375.535 54.2708 373.836 52.523 372.525 50.1927C371.214 47.8623 370.559 44.9494 370.559 41.4539V17.3494H382.502V39.5605C382.502 41.7452 383.036 43.4444 384.104 44.6581C385.221 45.8718 386.75 46.4787 388.692 46.4787C390.585 46.4787 392.09 45.8718 393.207 44.6581C394.372 43.3958 394.955 41.6966 394.955 39.5605V17.3494H406.898V56.3826H396.411L395.319 52.4502H394.955C392.236 55.5573 388.765 57.1109 384.541 57.1109Z" fill="#91A0A166"/>
<path d="M358.792 52.4502L366.365 63.6649H352.165L347.577 56.7467C345.975 56.9895 344.421 57.1109 342.916 57.1109C338.013 57.1109 333.716 56.0913 330.026 54.0523C326.385 52.0132 323.545 49.0275 321.506 45.095C319.467 41.1626 318.447 36.429 318.447 30.8945C318.447 25.3599 319.467 20.6264 321.506 16.6939C323.545 12.7615 326.385 9.77573 330.026 7.73668C333.716 5.69763 338.013 4.6781 342.916 4.6781C347.819 4.6781 352.092 5.69763 355.733 7.73668C359.423 9.77573 362.287 12.7615 364.326 16.6939C366.365 20.6264 367.385 25.3599 367.385 30.8945C367.385 35.6523 366.632 39.8275 365.127 43.4201C363.622 46.9641 361.462 49.8528 358.646 52.086L358.792 52.4502ZM331.556 30.8945C331.556 35.4095 332.527 38.9536 334.469 41.5267C336.411 44.0512 339.226 45.3135 342.916 45.3135C346.606 45.3135 349.422 44.0512 351.364 41.5267C353.306 38.9536 354.276 35.4095 354.276 30.8945C354.276 26.3794 353.306 22.8596 351.364 20.3351C349.422 17.762 346.606 16.4755 342.916 16.4755C339.226 16.4755 336.411 17.762 334.469 20.3351C332.527 22.8596 331.556 26.3794 331.556 30.8945Z" fill="#91A0A166"/>
</svg>
