<svg width="94" height="22" viewBox="0 0 94 22" fill="none" xmlns="http://www.w3.org/2000/svg">
<g clip-path="url(#clip0_2394_8918)">
<path d="M32.8691 17.2824V17.4966C31.8802 17.4966 30.8537 17.2097 29.8273 16.632C28.9437 16.1652 28.2706 15.5874 27.8119 14.9408C26.9997 14.7266 26.3267 14.1833 25.7965 13.3913C25.2664 12.5648 24.9844 11.7001 24.9844 10.801C24.9844 9.61108 25.3754 8.63926 26.1161 7.81282C26.8606 6.98639 27.8157 6.58847 28.9474 6.58847C30.0792 6.58847 31.0004 6.98639 31.7787 7.81282C32.557 8.63926 32.9105 9.61108 32.9105 10.801C32.9105 11.7728 32.6285 12.6375 32.0607 13.464C31.4929 14.2904 30.7522 14.7954 29.9025 14.9753C30.0792 15.553 30.4326 16.0542 31.0004 16.5248C31.602 17.0299 32.2374 17.2441 32.8766 17.2441V17.2824H32.8691ZM28.9437 14.7266C29.7558 14.6194 30.395 14.2215 30.8537 13.5366C31.3125 12.8518 31.5268 11.9526 31.5268 10.801C31.5268 9.64934 31.3162 8.75021 30.8537 8.06534C30.395 7.34604 29.7558 6.98639 28.9437 6.98639C28.1315 6.98639 27.4923 7.34604 27.0336 8.03091C26.5749 8.71578 26.3605 9.64934 26.3605 10.8048C26.3605 11.9603 26.5711 12.8939 26.996 13.6132C27.4547 14.3669 28.0939 14.7266 28.9437 14.7266ZM34.4596 12.0636V8.1036C34.4596 7.67126 34.3881 7.3843 34.2114 7.23891C34.0347 7.09352 33.7527 7.02465 33.3278 7.02465V6.81039H36.8321V7.02465C36.4073 7.02465 36.1253 7.09734 35.9485 7.23891C35.7718 7.38047 35.7004 7.67126 35.7004 8.1036V12.098C35.7004 12.8173 35.9109 13.3951 36.3358 13.8963C36.7607 14.4013 37.2909 14.6156 37.9639 14.6156C38.6369 14.6156 39.2009 14.3631 39.592 13.8963C40.0169 13.4295 40.1936 12.8173 40.1936 12.098V8.1036C40.1936 7.67126 40.1221 7.3843 39.9454 7.23891C39.7687 7.09352 39.4867 7.02465 39.0618 7.02465V6.81039H41.8555V7.02465C41.4306 7.02465 41.1486 7.09734 40.9719 7.23891C40.7952 7.38047 40.7237 7.67126 40.7237 8.1036V12.098C40.7237 12.9972 40.4756 13.7165 39.9793 14.2598C39.4115 14.872 38.5993 15.1589 37.539 15.1589C36.5501 15.1589 35.8057 14.872 35.2379 14.2598C34.7077 13.682 34.4596 12.9627 34.4596 12.0636ZM43.4121 13.6476V8.06534C43.4121 7.633 43.3407 7.34604 43.164 7.20065C42.9873 7.05526 42.7053 6.98639 42.2804 6.98639V6.77213H45.7847V6.98639C45.3598 6.98639 45.0778 7.05908 44.9011 7.20065C44.7244 7.34604 44.6529 7.633 44.6529 8.06534V13.6438C44.6529 14.0761 44.7244 14.3631 44.9011 14.5085C45.0778 14.6539 45.3598 14.7227 45.7847 14.7227V14.937H42.2804V14.7227C42.7053 14.7227 42.9873 14.65 43.164 14.5085C43.3407 14.3669 43.4121 14.0761 43.4121 13.6476ZM53.3197 6.58847L53.5303 9.36239H53.2483C53.1769 8.71578 52.8949 8.17247 52.4361 7.70569C51.9774 7.23891 51.4473 7.02082 50.8457 7.02082C49.9621 7.02082 49.2552 7.41873 48.6874 8.17247C48.4393 8.53213 48.2287 8.93004 48.0858 9.43126C47.9429 9.9363 47.8753 10.4375 47.8753 11.0153C47.8753 12.1325 48.1949 13.0316 48.7965 13.7165C49.3642 14.3631 50.1425 14.6883 51.0261 14.6883C51.5225 14.6883 51.9812 14.5085 52.4399 14.1833C52.8648 13.8963 53.2182 13.464 53.5378 12.9589L53.7484 13.066C53.4288 13.6782 53.0039 14.145 52.4737 14.5429C51.906 14.9753 51.2705 15.1895 50.5975 15.1895C49.3943 15.1895 48.4054 14.7916 47.6271 13.9652C46.8488 13.1732 46.4239 12.1669 46.4239 11.0114C46.4239 9.82152 46.8488 8.78082 47.6609 7.91613C48.5107 7.05143 49.4657 6.61908 50.6313 6.61908C51.0901 6.61908 51.4811 6.69178 51.8007 6.79891C52.0827 6.9443 52.4023 7.05143 52.6843 7.19682C52.7557 7.19682 52.861 7.12413 52.9325 7.05143C53.0039 6.9443 53.0753 6.79891 53.1092 6.65352H53.3197V6.58847ZM55.4742 13.6476V8.06534C55.4742 7.633 55.4028 7.34604 55.2261 7.20065C55.0493 7.05526 54.7673 6.98639 54.3425 6.98639V6.77213H57.8468V6.98639C57.4219 6.98639 57.1399 7.05908 56.9632 7.20065C56.7865 7.34604 56.715 7.633 56.715 8.06534V10.3686L59.2605 8.02708C59.4034 7.88169 59.5087 7.77456 59.614 7.66743C59.7569 7.52204 59.8245 7.38047 59.8245 7.26952C59.8245 7.16239 59.7531 7.08969 59.6478 7.05526C59.5049 7.02082 59.3282 6.98256 59.0801 6.98256V6.7683H62.0505V6.98256C61.697 6.98256 61.3774 7.05526 61.0954 7.19682C60.8134 7.34221 60.4938 7.59473 60.1065 7.95439L57.7377 10.2233L60.9939 13.5366C61.5241 14.0761 61.9151 14.4013 62.1632 14.5429C62.4114 14.6845 62.731 14.7572 63.1521 14.7572V14.9714H59.4034V14.7572C59.614 14.7572 59.7569 14.7227 59.8283 14.65C59.8997 14.5773 59.9712 14.4702 59.9712 14.3248C59.9712 14.1794 59.8283 13.9652 59.5125 13.64L56.7526 10.8316V13.6744C56.7526 14.1067 56.8241 14.3937 57.0008 14.5391C57.1775 14.6845 57.4595 14.7533 57.8844 14.7533V14.9676H54.3801V14.7533C54.8049 14.7533 55.0869 14.6806 55.2637 14.5391C55.4404 14.3937 55.5118 14.1067 55.5118 13.6744L55.4742 13.6476ZM68.4613 9.43508H68.2507C68.1793 8.67752 67.9687 8.1036 67.5777 7.67126C67.1904 7.23891 66.694 7.05908 66.0549 7.05908C65.63 7.05908 65.2765 7.20447 65.0284 7.45699C64.7464 7.74395 64.6411 8.03473 64.6411 8.35613C64.6411 8.82291 65.0284 9.29352 65.7729 9.7603C66.4797 10.1926 67.1866 10.5867 67.8973 10.9846C68.6756 11.5241 69.029 12.1363 69.029 12.7829C69.029 13.4678 68.7809 14.0073 68.3221 14.4396C67.8634 14.872 67.1904 15.0862 66.3745 15.0862C66.1263 15.0862 65.9157 15.0518 65.7014 15.0135C65.4909 14.9791 65.3141 14.9064 65.1713 14.8681C65.0284 14.7954 64.8893 14.761 64.7464 14.6883C64.6035 14.6539 64.4982 14.6156 64.3929 14.6156C64.2877 14.6156 64.2162 14.65 64.1448 14.7227C64.0733 14.7954 64.0395 14.9026 64.0019 15.048H63.7913V12.274H64.0019C64.0019 12.9933 64.2501 13.5328 64.7802 13.9652C65.2389 14.3631 65.8067 14.5773 66.4797 14.5773C66.9046 14.5773 67.258 14.4702 67.5401 14.2177C67.8596 13.9652 67.9988 13.64 67.9988 13.2459C67.9988 12.7064 67.6453 12.2013 66.9009 11.7346C66.194 11.3366 65.5209 10.9426 64.8479 10.5446C64.1034 10.0052 63.75 9.393 63.75 8.70813C63.75 8.09595 63.9605 7.55647 64.423 7.15856C64.8817 6.72621 65.4495 6.54639 66.1225 6.54639C66.3331 6.54639 66.5136 6.58082 66.6903 6.61908C66.7241 6.61908 66.867 6.65352 67.149 6.76447C67.2543 6.79891 67.3596 6.83717 67.5363 6.90986C67.713 6.98256 67.8183 7.01699 67.9273 7.01699C68.0326 7.01699 68.1379 6.98256 68.2093 6.8716C68.3146 6.76447 68.3522 6.65734 68.3522 6.58465H68.5628V9.42743H68.4613V9.43508ZM69.2396 6.7683H72.21V6.98256C71.928 6.98256 71.7513 7.017 71.6084 7.12795C71.4655 7.20065 71.4317 7.30778 71.4317 7.45317C71.4317 7.5603 71.4317 7.66743 71.4655 7.74013C71.4993 7.81282 71.5369 7.99265 71.6422 8.24517L73.3041 12.9627L74.6502 9.14813L74.3306 8.249C74.1877 7.78221 74.011 7.457 73.9057 7.3116C73.729 7.09734 73.447 6.98639 73.0936 6.98639V6.77213H76.2069V6.98639C75.9249 6.98639 75.7481 7.02082 75.6053 7.13178C75.4624 7.20447 75.3947 7.3116 75.3947 7.45699C75.3947 7.67126 75.4661 7.92378 75.5714 8.28343L77.1619 13.001L78.79 8.249C78.8614 7.99647 78.9328 7.78221 78.9328 7.60239C78.9328 7.20447 78.6509 7.02465 78.0831 7.02465V6.81039H80.4519V7.02465C80.0646 7.02465 79.8165 7.20447 79.6397 7.52969C79.5683 7.67508 79.463 7.9276 79.3577 8.28726L77.0566 15.1627H76.7746L74.936 9.97839L73.1312 15.1627H72.8492L70.4428 8.32169C70.2661 7.81665 70.1232 7.49526 70.0179 7.34986C69.8412 7.1356 69.6306 7.02465 69.311 7.02465V6.81039L69.2396 6.7683ZM82.9636 6.58847H83.2456L86.1821 13.6438C86.3589 14.0761 86.5356 14.3286 86.6785 14.4702C86.8552 14.65 87.1372 14.7227 87.5282 14.7227V14.937H84.2382V14.7227C84.806 14.7227 85.1218 14.5429 85.1218 14.1833C85.1218 14.0379 85.088 13.858 84.9789 13.6438L84.3773 12.2052H81.264L80.6286 13.6438C80.5233 13.858 80.4857 14.0417 80.4857 14.1833C80.4857 14.3631 80.5572 14.4702 80.6963 14.5812C80.8392 14.6883 81.0873 14.7266 81.4032 14.7266V14.9408H78.8577V14.7266C79.1397 14.7266 79.354 14.6194 79.5307 14.4396C79.6736 14.2942 79.8503 14.0073 79.9894 13.6476L82.9636 6.58847ZM82.7868 8.46326L81.4069 11.7384H84.1292L82.7868 8.46326ZM88.9796 13.6476V8.06534C88.9796 7.633 88.9081 7.34604 88.7314 7.20065C88.5547 7.05526 88.2727 6.98639 87.8478 6.98639V6.77213H91.2807C92.059 6.77213 92.732 6.98639 93.2284 7.3843C93.7585 7.78221 94.0067 8.35613 94.0067 9.07543C94.0067 9.79473 93.7585 10.3342 93.2622 10.7321C92.8035 11.0918 92.2733 11.2716 91.6003 11.2716C91.3183 11.2716 91.0325 11.2716 90.822 11.2372C90.5738 11.2027 90.3633 11.1645 90.1865 11.13V13.6132C90.1865 14.0455 90.258 14.3325 90.4347 14.4779C90.6114 14.6233 90.8934 14.6921 91.3183 14.6921V14.9064H87.814V14.6921C88.2388 14.6921 88.5209 14.6194 88.6976 14.4779C88.8743 14.3325 88.9457 14.0455 88.9457 13.6132L88.9796 13.6476ZM90.2166 7.34604V10.6939C90.4272 10.7666 90.6077 10.801 90.7468 10.8393C90.8859 10.8775 91.0288 10.8737 91.1378 10.8737C91.6341 10.8737 92.0214 10.7283 92.3072 10.4069C92.5892 10.0817 92.6945 9.6876 92.6945 9.18256C92.6945 8.64308 92.5516 8.1763 92.2357 7.77839C91.9161 7.41873 91.5288 7.20065 91.0664 7.20065C90.8896 7.20065 90.7468 7.20065 90.6415 7.23508C90.5362 7.23891 90.3933 7.27334 90.2166 7.34604Z" fill="white" fill-opacity="0.5"/>
<path d="M10.1682 0.0383868C15.5111 -0.286827 20.2527 3.4209 21.3469 8.71612C21.6665 10.1547 21.6669 11.6699 21.3811 13.1429C20.6742 16.7432 18.2675 19.766 14.9436 21.1702C12.6802 22.1419 10.0636 22.2869 7.72879 21.5677C4.51023 20.5959 1.88916 18.1128 0.689723 14.9066C-0.159895 12.6034 -0.231344 10.0097 0.512965 7.67218C1.85528 3.31429 5.70925 0.29094 10.2024 0.0383868H10.1682ZM13.8733 2.52179C12.6024 2.05118 11.2936 1.90977 9.94754 2.0169C9.09786 2.0896 8.28208 2.30404 7.47 2.62921C4.81921 3.712 2.83737 5.97712 2.08914 8.78546C1.95005 9.39754 1.84074 10.0481 1.80691 10.6946C1.80689 11.0193 1.77637 10.9575 1.77371 11.1263V11.4485C1.81133 12.2748 1.91622 13.0669 2.16433 13.8587C2.66066 15.4426 3.51034 16.847 4.74734 17.9642C4.81875 17.9986 4.85272 18.0705 4.9241 18.0706C4.97949 18.0988 5.02919 18.1328 5.07547 18.1673C5.27459 18.3452 5.49164 18.504 5.70632 18.6409C6.87192 19.4674 8.21835 19.9728 9.63211 20.1526C10.5156 20.2636 11.4371 20.2638 12.3206 20.1185C13.4522 19.9386 14.5128 19.5439 15.4339 18.7864C15.573 18.645 15.7866 18.4993 15.8919 18.3196C15.9257 18.2814 15.9635 18.2086 15.9973 18.1741C16.3123 17.7347 16.5398 17.2744 16.6917 16.7913C16.544 17.2835 16.332 17.7529 16.0315 18.1858C15.9977 18.2546 15.9262 18.2929 15.9261 18.3997L15.9563 18.3655C16.1667 18.1858 16.3428 17.9333 16.4856 17.681C17.3015 16.4222 17.5127 15.0522 17.2307 13.6136C16.9111 11.9187 16.0651 10.5526 14.719 9.50811C13.4445 8.4981 11.9593 8.1046 10.3313 8.13897H9.97781V8.17315C10.2825 8.34666 10.559 8.52412 10.8313 8.72882C10.8197 8.73347 10.8081 8.73983 10.7971 8.74737C11.0077 8.96541 11.222 9.17948 11.3987 9.43194C11.4325 9.43194 11.4665 9.46981 11.4329 9.50421C11.4329 9.53857 11.3954 9.50434 11.3616 9.50421C11.2564 9.46597 11.1133 9.46633 11.0081 9.43194C11.0081 9.44469 11.0101 9.45749 11.0139 9.47003H11.012C10.5533 9.36291 10.0566 9.2906 9.59793 9.25616C9.32931 9.23571 9.06325 9.22376 8.80007 9.22393H8.79617C8.12375 9.2244 7.46923 9.3019 6.83425 9.50811C6.31913 9.67303 5.84419 9.88123 5.39382 10.1497C5.39034 10.1514 5.38656 10.1529 5.38308 10.1546C5.32708 10.1831 5.27679 10.2173 5.22781 10.2523C5.15399 10.2994 5.08071 10.3481 5.00808 10.3987C5.00288 10.4015 4.99678 10.4048 4.99148 10.4075C4.9039 10.4363 4.83953 10.4914 4.80105 10.5511C4.79589 10.5496 4.79056 10.5492 4.78543 10.5491C4.68015 10.6218 4.53718 10.7291 4.43191 10.8362C4.36049 10.9089 4.32219 10.9082 4.28836 10.8011C4.00276 9.46982 4.25121 8.21116 5.3489 7.41925C5.49171 7.35041 5.55968 7.23987 5.70242 7.20538C5.66845 7.41995 5.52603 7.95888 5.87918 8.03155C6.37173 8.24959 7.29311 7.4191 7.54129 7.13214C7.60905 7.06399 7.78581 7.45699 8.35281 7.27764C7.89439 7.16668 7.64675 6.98645 7.64675 6.51983L7.57449 6.44366C7.57449 5.40303 9.37924 5.07714 10.0862 4.64483C10.754 4.21346 11.321 3.46262 11.3235 3.38702C11.5377 3.85337 11.5723 3.78072 11.7151 4.46514C12.5648 3.89118 13.6628 2.88138 13.8733 2.52179ZM14.9329 1.01007C14.862 1.01038 14.8616 1.08316 14.8616 1.15557C14.6135 2.02018 14.1549 2.84672 13.5872 3.53155C13.5872 3.60028 13.6247 3.56685 13.6585 3.56671C13.835 3.56671 13.9781 3.45947 14.1546 3.45929C14.0833 3.56625 14.0492 3.63861 13.9778 3.71124C13.3762 4.50324 12.6321 5.11215 11.677 5.51007C11.6057 5.51016 11.5716 5.58308 11.5716 5.61749C11.4663 6.01524 11.2895 6.37458 10.97 6.66143C10.9362 6.69968 10.903 6.70025 10.9368 6.73468H10.97C11.5039 6.52041 12.0347 6.2679 12.4934 5.94268C12.6362 5.8356 12.7413 5.72826 12.8841 5.65557C12.9217 5.61731 12.9215 5.61677 12.9553 5.58233C12.9595 5.57875 12.9639 5.57517 12.968 5.57159C12.9601 5.584 12.9554 5.60117 12.9553 5.62823C13.0267 5.66264 13.132 5.66339 13.2034 5.66339C14.1959 5.80876 15.1509 6.09538 16.0344 6.52764C16.6697 6.85277 17.2715 7.21241 17.8391 7.67901C18.3016 8.03863 18.7611 8.47106 19.1145 8.9378V8.97296C19.081 8.97296 19.0804 8.93847 19.0803 8.9378C19.0091 8.8997 18.9715 8.89978 18.9378 8.86553C18.9096 8.85123 18.8825 8.83658 18.8567 8.82257C18.3 8.36932 17.6797 7.94948 17.0237 7.59893C16.9185 7.56451 16.8471 7.52593 16.7757 7.49151C16.7439 7.4915 16.7092 7.46203 16.677 7.48663L16.6702 7.49151C16.6702 7.52588 16.7043 7.56455 16.7044 7.59893C16.772 7.70599 16.8814 7.81307 16.9153 7.95831L16.8714 7.93194C16.4249 7.66055 15.9433 7.48777 15.43 7.34698C14.8836 7.17278 14.1354 7.06628 13.8636 7.09112L13.8391 7.09405C13.8391 7.1284 13.8395 7.12823 13.8733 7.12823C14.6515 7.2354 15.4299 7.52238 16.1028 7.92022C16.3134 8.03118 16.528 8.17328 16.7386 8.31866C16.7408 8.31867 16.7431 8.31864 16.7454 8.31866C16.7442 8.31981 16.7427 8.32133 16.7415 8.32257C17.1662 8.64385 17.5538 9.00294 17.8733 9.40069C18.2268 9.87129 18.5461 10.3388 18.7942 10.8782C19.1815 11.7046 19.3961 12.569 19.43 13.4681L19.5052 13.4066C19.5052 13.441 19.5055 13.4417 19.5393 13.4417C20.3176 10.4536 19.5395 7.28504 17.4866 4.98175C16.7083 4.15531 15.7865 3.43601 14.76 2.93096C14.6887 2.96537 14.6883 3.03803 14.6546 3.11065C14.5831 3.32491 14.5118 3.54385 14.4065 3.75811C14.1716 4.21318 13.8898 4.61915 13.5608 4.98858C13.7287 4.79817 13.8808 4.60002 14.0159 4.39288C14.2955 3.98446 14.4658 3.57595 14.6223 3.1419L14.6887 2.9544H14.6516C14.6854 2.91998 14.6848 2.8814 14.6848 2.84698C14.8188 2.27307 14.9198 1.69921 14.9319 1.1253L14.9329 1.01007ZM5.77371 8.54034C5.77371 8.42953 5.66888 8.36073 5.56375 8.39483C5.49236 8.39483 5.45832 8.43366 5.38699 8.46807C5.25266 8.5592 5.14768 8.67705 5.07058 8.81475C5.02542 8.87956 4.9864 8.95316 4.95828 9.03741C4.95828 9.03741 4.92445 9.07622 4.95828 9.11065C4.96077 9.11064 4.96356 9.11008 4.96609 9.10968C4.97029 9.11401 4.97851 9.11456 4.99539 9.11456C4.99946 9.10612 5.00389 9.09749 5.00808 9.08917C5.02677 9.07508 5.04604 9.05543 5.06375 9.03741C5.17271 8.93048 5.31167 8.85796 5.45437 8.82354C5.59721 8.82355 5.66857 8.85792 5.70242 9.00323C5.70248 8.96882 5.77034 8.93022 5.7366 8.89581V8.84014C5.78371 8.74278 5.80157 8.62854 5.77371 8.54034ZM10.6546 5.36456C10.444 5.54821 10.1957 5.65587 9.94754 5.763V5.75518H9.90945C9.89701 5.7666 9.8848 5.77837 9.87429 5.79034C9.62178 5.88815 9.39197 5.98691 9.13113 6.08819C8.95457 6.16088 8.77831 6.26813 8.67312 6.41339C8.57691 6.54278 8.50838 6.67511 8.55203 6.83429C8.54444 6.84394 8.53687 6.85667 8.52957 6.87237C8.54124 6.87237 8.55333 6.87168 8.56472 6.87139C8.56568 6.87393 8.56665 6.87666 8.56765 6.87921C8.57803 6.87616 8.58853 6.87346 8.5989 6.87042C8.74529 6.86352 8.87348 6.83721 9.02664 6.83721C9.87613 6.76818 10.4772 6.225 10.6878 5.39874C10.6877 5.39522 10.6863 5.36816 10.6604 5.36456H10.6546ZM13.0266 5.52179C13.0217 5.52625 13.0167 5.52996 13.012 5.5335C13.0411 5.50801 13.0705 5.48216 13.0989 5.45636C13.0752 5.47804 13.0507 5.50035 13.0266 5.52179Z" fill="white" fill-opacity="0.5"/>
<path d="M11.2858 11.0194C10.8947 10.8051 10.4736 10.6597 10.0487 10.5526C9.48096 10.4072 8.91696 10.3728 8.3492 10.4072C7.95816 10.4416 7.53704 10.4799 7.146 10.6597C7.11216 10.6941 7.04072 10.6941 7.00312 10.7324C6.68352 10.9467 6.64968 11.1992 6.86024 11.5244C6.89408 11.5971 6.96552 11.6315 7.00312 11.7042C6.79256 11.7042 6.61208 11.6698 6.47296 11.6315C6.01424 11.5244 5.58936 11.379 5.19832 11.0538C5.0216 10.9084 4.87872 10.8013 4.77344 10.587C4.80728 10.5143 4.87872 10.4416 4.984 10.4072C5.12688 10.3345 5.23216 10.2274 5.37504 10.1547C6.04808 9.82945 6.72112 9.64962 7.46184 9.57693C7.74384 9.54249 8.0296 9.50423 8.3116 9.54249C9.16136 9.57693 10.0111 9.72232 10.8233 9.97484C11.0338 10.0475 11.2482 10.1202 11.4587 10.1891C11.4587 10.1164 11.4249 10.082 11.3873 10.0437C11.3158 9.89832 11.2106 9.75675 11.1053 9.61136C11.0714 9.57693 11 9.50423 11 9.43153C11.1053 9.46597 11.2482 9.46597 11.3534 9.50423C11.3873 9.50423 11.4249 9.53866 11.4249 9.50423C11.4587 9.46979 11.4249 9.43153 11.391 9.43153C11.2143 9.17901 11 8.96475 10.7894 8.74666C10.8947 8.67397 11.0376 8.74666 11.1429 8.74666C12.3461 8.89206 13.444 9.3244 14.399 10.0781C15.6737 11.0844 16.4858 12.3814 16.8054 13.9654C16.9107 14.5049 16.9483 15.0444 16.9107 15.5839C16.8393 16.5213 16.5573 17.3821 15.9895 18.1741C15.9557 18.2086 15.9181 18.2813 15.8842 18.3195C15.779 18.4994 15.5646 18.6448 15.4255 18.7863C14.5043 19.5439 13.444 19.938 12.3122 20.1178C11.4286 20.2632 10.5074 20.2632 9.62384 20.1522C8.21008 19.9724 6.864 19.4674 5.6984 18.6409C5.4164 18.4611 5.13064 18.243 4.88624 17.9943V17.9599C4.92008 17.9254 4.95768 17.9943 4.99152 17.9943C5.59312 18.4611 6.26616 18.7863 7.00688 18.9661C7.25504 19.0388 7.5032 19.0733 7.75136 19.1115C7.8228 19.146 7.85664 19.1115 7.92808 19.146H7.96192C8.52968 19.2187 9.09368 19.1804 9.62384 19.0733C10.827 18.859 11.925 18.354 12.8424 17.4893C13.4778 16.9115 13.9742 16.2649 14.2223 15.4385C14.4705 14.6121 14.4329 13.8201 14.0794 13.0281C14.008 13.3877 13.8313 13.6747 13.5831 13.9654C13.335 14.218 13.0868 14.4705 12.771 14.6121C12.7371 14.6465 12.6995 14.6848 12.6657 14.6465C12.6318 14.6082 12.6657 14.5738 12.6657 14.5394C12.7371 14.2868 12.771 14.0343 12.8086 13.7818C12.9138 12.7028 12.489 11.8726 11.6768 11.226C11.5339 11.1188 11.3948 11.0117 11.2519 10.939L11.2858 11.0194Z" fill="white" fill-opacity="0.18"/>
<path d="M7.78162 19.2608C7.46202 19.2264 7.18003 19.1537 6.86042 19.081C6.29267 18.9012 5.7625 18.6486 5.26994 18.3234C5.16466 18.2507 5.05939 18.1436 4.91651 18.0709C4.84507 18.0709 4.81122 17.9982 4.73978 17.9638C3.50274 16.8465 2.65299 15.4424 2.15667 13.8584C1.90851 13.0664 1.80322 12.2744 1.76562 11.4479C1.76562 11.3752 1.76562 11.3408 1.76562 11.2337C1.83706 11.3791 1.8709 11.4862 1.9085 11.5933C2.36722 12.5996 2.93499 13.5025 3.71331 14.2563C4.56307 15.0483 5.51811 15.5878 6.6837 15.8059C8.02979 16.0201 9.30066 15.8059 10.4324 15.0483C11.0002 14.6886 11.4927 14.2219 11.7409 13.5714C12.0605 12.7794 11.9515 12.0601 11.4589 11.3752C11.4251 11.3025 11.3536 11.2681 11.316 11.1954C11.3875 11.161 11.4213 11.1954 11.4589 11.2299C11.7409 11.4824 11.9891 11.8076 12.1658 12.1672C12.3087 12.5269 12.4139 12.8865 12.4139 13.2845C12.4139 13.6824 12.3425 14.042 12.1658 14.4017C12.1996 14.4017 12.2372 14.4017 12.2711 14.3672C12.4478 14.2601 12.5907 14.153 12.7298 14.042C12.7636 14.0076 12.8012 13.9349 12.8727 13.9693C12.8388 14.2563 12.7674 14.5471 12.6959 14.834C12.8727 14.7269 13.0494 14.6198 13.2261 14.4744C13.369 14.3672 13.4743 14.2219 13.6171 14.1147C13.6886 14.1492 13.6886 14.1874 13.6886 14.2601C13.8991 15.0521 13.76 15.7714 13.369 16.4563C12.9103 17.2827 12.2372 17.9332 11.4589 18.4382C10.8235 18.8361 10.1128 19.1231 9.37211 19.3029C8.91338 19.41 8.4509 19.4483 7.95834 19.3756C7.8869 19.3412 7.81546 19.3756 7.78162 19.3412V19.2608Z" fill="white" fill-opacity="0.06"/>
</g>
<defs>
<clipPath id="clip0_2394_8918">
<rect width="94" height="22" fill="white"/>
</clipPath>
</defs>
</svg>
